<svg xmlns="http://www.w3.org/2000/svg" viewBox="0 0 40 46"><defs><style>.a{fill:#231815;}.b{mask:url(#a);}.c{fill:#969cb1;}.d{filter:url(#b);}</style><filter id="b" x="-2.829" y="0" width="45.903" height="46" filterUnits="userSpaceOnUse" color-interpolation-filters="sRGB"><feFlood flood-color="#fff" result="bg"/><feBlend in="SourceGraphic" in2="bg"/></filter><mask id="a" x="-2.829" y="0" width="45.903" height="46" maskUnits="userSpaceOnUse"><g class="d"><path class="a" d="M20,12.936a4.512,4.512,0,1,1-4.512,4.512A4.517,4.517,0,0,1,20,12.936m0-5a9.512,9.512,0,1,0,9.512,9.512A9.512,9.512,0,0,0,20,7.936Z"/><path class="a" d="M-2.829.912c5.488,7.317,8.853,9.951,16.1,13.536v3c-6.878-1.9-9.731-3.732-16.1-8.085Z"/><path class="a" d="M43.074.912c-5.488,7.317-8.854,9.951-16.1,13.536v3c6.878-1.9,9.732-3.732,16.1-8.085Z"/></g></mask></defs><g class="b"><rect class="c" width="40" height="46" rx="3.005"/></g></svg>
