<svg xmlns="http://www.w3.org/2000/svg" viewBox="0 0 25.03 32.186"><defs><style>.a{fill:none;stroke:#fff;stroke-linecap:round;stroke-linejoin:round;stroke-width:3px;}</style></defs><path class="a" d="M137.928,79.232c1.511-4.474,6.415-7.039,10.244-7.024,3.829-.006,9,.975,11.268,7.024a9.929,9.929,0,0,1-.951,8.39c-1.707,3.122-4.261,5.825-10.756,12.573a4.448,4.448,0,0,1-6.219-.146c-2.049-2.268-1.354-4.573.183-6.219l4.621-4.915a3.473,3.473,0,0,0-.073-4.122,3.674,3.674,0,0,1-1-3.293,3.178,3.178,0,0,1,3.244-2.341,2.942,2.942,0,0,1,3,2.366,3.787,3.787,0,0,1-.439,2.292" transform="translate(-136.428 -70.708)"/></svg>