<svg xmlns="http://www.w3.org/2000/svg" viewBox="0 0 41 50.5"><defs><style>.cls-1,.cls-3{fill:none;stroke:#4d4d4d;stroke-linecap:round;stroke-width:4px;}.cls-1{stroke-miterlimit:10;}.cls-2{fill:#4d4d4d;}.cls-3{stroke-linejoin:round;}</style></defs><g><path class="cls-1" d="M39,25c0,7-5.81,17-18.5,17S2,32,2,25"/><path class="cls-2" d="M20.5,4a9,9,0,0,1,9,9.06V23.94a9,9,0,1,1-18,0V13.06A9,9,0,0,1,20.5,4m0-4a13,13,0,0,0-13,13.06V23.94a13,13,0,1,0,26,0V13.06A13,13,0,0,0,20.5,0Z"/><line class="cls-3" x1="13.5" y1="48.5" x2="27.5" y2="48.5"/></g></svg>
